<svg version="1.1" id="Layer_1" xmlns="http://www.w3.org/2000/svg" xmlns:xlink="http://www.w3.org/1999/xlink" x="0px" y="0px" width="512px" height="512px" viewBox="0 0 512 512" enable-background="new 0 0 512 512" xml:space="preserve">
<g>
	<g>
		<g>
			<path fill="#EF4823" d="M304.4,425c-0.8-26-0.2-53.7-9.3-78.5c0,0,0,0-0.1,0c-13.5-1.4-26.6,2.6-39.9,3.4
				c-11.5,0.7-23,0-34.5-0.3c0.4,15.8,5,31.2,5.8,46.9c0.7,12.9-0.3,25.6-0.9,38.5c-0.6,12-1.1,25.2,3.6,36.6
				c8.5,20.5,31,28.6,50.8,18.8C304.8,478.2,305.2,449,304.4,425z M289.7,463.2c-1.2,29.3-47.9,27.5-50,1.4c0,0,0-0.1,0-0.1
				c-2.3-14.7,9.4-26.7,24-26.8C278.6,437.5,290.3,447.6,289.7,463.2z"></path>
		</g>
	</g>
	<g>
		<g>
			<path fill="#FEBF10" d="M411,91.4c-0.7-9.8-0.5-20.7-4.4-30c-3.2-7.5-9.4-10.1-16.8-10.3c-0.2,0.2-0.4,0.4-0.6,0.6
				c-5.4,4.7-15.1,3.5-21.6,3.2c-9.5-0.5-18.8-0.5-28.3-0.1c-26,1-52,2.2-78,3.9c-27,1.8-53.5,2.5-80.5,1
				c-12.2-0.6-24.3-2.2-36.4-2.9c-6.3-0.4-12.5,0.6-18.7,0.4c-1.6,0-3.2-0.2-4.8-0.3c-0.2,0-0.4,0-0.7,0c-2.3,1.9-6.1,2.4-8.5-0.6
				c0,0-0.1-0.1-0.1-0.1c-4.3,0.8-8.2,11.3-9.4,14.3c-4.2,10.9-8.1,22-9.5,33.6c-2.6,20.7-1.3,48.8,14.7,64.5
				c12.5,12.2,30.5,15.2,47.3,15.7c28,0.8,55.2-6.1,83-7.7c15.7-0.9,31.4-0.3,47.1-1.6c15.1-1.3,29.7-2.4,44.8-1.1
				c7.7,0.6,15.4,1.6,23.1,3c6,1.1,12.1,2.7,18.2,2.7c10.1,0.1,19.9-2.8,26.8-10.6C415.7,148.2,412.7,116.8,411,91.4z"></path>
		</g>
	</g>
	<g>
		<g>
			<path fill="#BCBCBC" d="M263.6,448.7c-7.5,0.6-12.8,4.7-13.2,11.6c0.1,0.6,0.2,1.2,0.1,1.9c0,0.2,0,0.3,0,0.5
				c0,0.3,0.1,0.7,0.1,1c0.1,0.5,0.1,1,0,1.4c2.4,12.1,28.8,12.6,28.1-3C278.4,453.4,272.5,448,263.6,448.7z"></path>
		</g>
	</g>
	<g>
		<g>
			<path fill="#BCBCBC" d="M460.4,143.5c1-8.3,1.6-16.7,1.3-25.1c-0.2-4.4,0.1-9.5-2.3-13.4c-3.8-6-11.4-6.5-17.8-6.5
				c-6.3,0.1-12.6,0.6-18.9,0.6c0.1,1.5,0.1,3,0.2,4.5c0.2,4.3,0.4,8.6,0.4,12.9c5.2-1,9.8-0.1,15,1.6c2.2,0.7,4.4,2.3,4.4,5
				c0,15.4,0.8,30.9,0.2,46.3c-0.5,12.9-1,26.5-6.4,38.4c-3.5,7.7-9.4,13.3-16.6,17.6c-11.9,7.1-24.7,12.2-37.6,17.4
				c-14.9,6-30,11.6-45,17.3c-14.7,5.5-29.5,9.9-44.7,13.9c-8,2.1-16,4.2-23.9,6.6c-5.2,1.6-11,3.5-14.7,7.8
				c-5.3,6.2-3.7,14.8-3.1,22.3c0.8,9.2,0.7,18.5-3.8,26.8c-0.4,0.8-1,1.4-1.6,1.9c4.3-0.1,8.5-0.3,12.8-0.8
				c1.9-0.2,3.8-0.5,5.6-0.8c1.8-11.8-6.2-23.2-3.9-35.2c2-10.3,10-16.1,19.7-18.8c9.6-2.6,19.6-2.9,29.1-5.4
				c13.6-3.5,26.9-7.8,40.6-11c14.4-3.4,29-6.6,43-11.7c13.2-4.9,24.9-13.4,38.2-17.8c5.4-1.8,10.9-2.7,16.3-4.4
				c4.7-1.4,8-3.3,8.7-8.5c0.8-5.6-0.3-11.3-0.9-16.9c-0.7-6.1-0.6-12.1-0.1-18.2C455.6,174.4,458.6,159,460.4,143.5z"></path>
		</g>
	</g>
	<g>
		<g>
			<path d="M471.6,141.8c0.9-8.7,1.3-17.4,0.9-26.1c-0.2-5.6-0.9-11.1-3.7-16c-9.4-16.6-30.8-11.3-46.9-11.4
				c-0.4-6.7-1-13.4-2.2-19.9c-1.4-7.8-4-15.1-9.5-20.8c-6.3-6.6-16.1-7.8-24.7-7.4c-2.5,0.1-4.1,1.6-4.6,3.4
				c-1.8,0.5-4,0.5-5.8,0.5c-4.3,0.1-8.7-0.2-13-0.5c-11.2-0.8-22.5,0.1-33.7,0.6c-28,1.1-56,2.5-84,4.5c-13.7,1-27.5,1.2-41.2,0.9
				c-14.3-0.3-28.9-0.5-43.1-2.3c-5.7-0.7-11.4-1.3-17.1-1.6c-3-0.1-6-0.2-9-0.2c-3.1,0-6.4,0.8-9.4,0.6c-2.5-0.1-5.1-0.5-7.6-0.3
				c-16.6-8.5-25.8,22.4-29.7,33.1c-8.9,24.9-10,55.8,0.8,80.4c18.4,42,72.5,38.3,110.2,33.1c15.9-2.2,31.8-4.6,47.9-5.2
				c15.5-0.6,31.1-0.1,46.6-2c14.9-1.8,30.1-1.3,45,0.5c12.9,1.6,25.7,5.6,38.9,4.7c24.7-1.7,38.8-22.8,43.8-45.1
				c1.3-5.8,2-11.8,2.4-17.8c0.8,0.1,1.6,0.1,2.5-0.1c2.1-0.5,4.2-0.2,6.2,0.3c0.1,14.9,0.6,29.8,0.1,44.6
				c-0.4,11.7-1.2,24.7-7.4,35c-4.3,7-13.6,10.9-20.5,14.6c-6.8,3.7-14.5,6.2-21.6,9.1c-7.8,3.2-15.6,6.2-23.4,9.2
				c-14.8,5.7-29.5,11.6-44.6,16.4c-15,4.7-30.4,8.3-45.5,12.6c-10.8,3.1-21.9,7.3-27,18.1c-3.7,7.9-2.4,17-1.7,25.3
				c0.6,7,0.6,13.7-2.8,20c-1.5,2.8-0.3,5.4,1.7,6.7c-8.1-0.2-16.2-0.8-24.2-0.8c-4.5,0-5.8,4.3-4.4,7.5c-0.5,0.8-0.7,1.8-0.7,2.9
				c0.2,15.7,4.3,31,5.7,46.5c1.1,12.9,0.1,25.9-0.6,38.8c-1.3,23.4,0.8,49.4,22.1,63.8c17.7,11.9,41.2,8.9,57.6-3.9
				c21.4-16.8,21.8-45.4,21.1-70.2c-0.9-29.2-0.3-60.7-12.6-87.8c-2.1-4.6-8.1-4-10.2-0.9c-5.9-0.2-11.8,0.2-17.6,0.9
				c0.2-10.3-5-19.9-4.4-30.2c0.6-10.3,12.7-12.2,20.8-13.6c10.2-1.8,19.9-3.3,29.8-6.3c14.5-4.5,29.4-7.6,44.1-11.1
				c14.3-3.4,28.6-7.4,42-13.5c11.9-5.4,22.4-12.6,35.3-15.6c11-2.6,20.4-5.6,23.5-17.6c2.8-10.8-1.3-23-0.9-34.1
				C465.8,176.7,469.7,159.3,471.6,141.8z M397.6,168.9c-6.9,7.8-16.6,10.6-26.8,10.6c-6.1,0-12.2-1.6-18.2-2.7
				c-7.6-1.4-15.3-2.4-23.1-3c-15.1-1.2-29.8-0.2-44.8,1.1c-15.6,1.3-31.4,0.7-47.1,1.6c-27.8,1.6-55,8.6-83,7.7
				c-16.8-0.5-34.9-3.5-47.3-15.7C91.3,152.8,90,124.7,92.6,104c1.4-11.6,5.3-22.8,9.5-33.6c1.1-3,5-13.4,9.4-14.3
				c0,0,0,0.1,0.1,0.1c2.4,3,6.3,2.5,8.5,0.6c0.2,0,0.4,0,0.7,0c1.6,0.1,3.2,0.2,4.8,0.3c6.2,0.2,12.4-0.8,18.7-0.4
				c12.2,0.7,24.2,2.3,36.4,2.9c27,1.4,53.5,0.7,80.5-1c26-1.7,52-2.8,78-3.9c9.6-0.4,18.8-0.4,28.3,0.1c6.6,0.4,16.2,1.5,21.6-3.2
				c0.2-0.2,0.4-0.4,0.6-0.6c7.4,0.3,13.6,2.8,16.8,10.3c3.9,9.2,3.8,20.1,4.4,30C412.7,116.8,415.7,148.2,397.6,168.9z M295,346.5
				C295.1,346.5,295.1,346.5,295,346.5c9.2,24.7,8.6,52.5,9.4,78.5c0.7,24.1,0.4,53.2-24.4,65.5c-19.8,9.8-42.3,1.8-50.8-18.8
				c-4.7-11.4-4.2-24.5-3.6-36.6c0.6-12.9,1.5-25.6,0.9-38.5c-0.8-15.8-5.3-31.1-5.8-46.9c11.5,0.2,23,1,34.5,0.3
				C268.5,349.1,281.6,345.1,295,346.5z M460.4,143.5c-1.8,15.5-4.8,30.9-5.9,46.5c-0.4,6.1-0.5,12.1,0.1,18.2
				c0.6,5.6,1.7,11.3,0.9,16.9c-0.7,5.2-4.1,7.1-8.7,8.5c-5.4,1.7-10.9,2.6-16.3,4.4c-13.3,4.5-25,12.9-38.2,17.8
				c-13.9,5.1-28.5,8.4-43,11.7c-13.7,3.2-27,7.4-40.6,11c-9.6,2.5-19.6,2.7-29.1,5.4c-9.7,2.7-17.7,8.5-19.7,18.8
				c-2.3,11.9,5.7,23.3,3.9,35.2c-1.9,0.3-3.8,0.5-5.6,0.8c-4.2,0.5-8.5,0.8-12.8,0.8c0.6-0.5,1.2-1.1,1.6-1.9
				c4.5-8.3,4.6-17.6,3.8-26.8c-0.6-7.5-2.2-16.1,3.1-22.3c3.6-4.3,9.5-6.2,14.7-7.8c7.9-2.4,15.9-4.5,23.9-6.6
				c15.2-4,30-8.4,44.7-13.9c15-5.6,30.1-11.3,45-17.3c12.9-5.1,25.7-10.3,37.6-17.4c7.2-4.3,13.1-9.9,16.6-17.6
				c5.4-11.9,5.9-25.6,6.4-38.4c0.6-15.4-0.2-30.9-0.2-46.3c0-2.6-2.2-4.2-4.4-5c-5.1-1.7-9.8-2.6-15-1.6c0-4.3-0.2-8.7-0.4-12.9
				c-0.1-1.5-0.1-3-0.2-4.5c6.3,0,12.6-0.6,18.9-0.6c6.5-0.1,14,0.5,17.8,6.5c2.5,3.9,2.1,9,2.3,13.4
				C462.1,126.8,461.4,135.2,460.4,143.5z"></path>
		</g>
	</g>
	<g>
		<g>
			<path d="M263.6,437.7c-14.6,0.1-26.2,12.1-24,26.8c0,0,0,0.1,0,0.1c2.2,26,48.9,27.9,50-1.4C290.3,447.6,278.6,437.5,263.6,437.7
				z M250.6,465.1c0-0.4,0-0.9,0-1.4c-0.1-0.3-0.1-0.7-0.1-1c0-0.2,0-0.3,0-0.5c0.1-0.7,0-1.3-0.1-1.9c0.4-6.9,5.7-11,13.2-11.6
				c8.9-0.7,14.8,4.7,15.2,13.4C279.5,477.7,253.1,477.2,250.6,465.1z"></path>
		</g>
	</g>
</g>
</svg>